<?xml version="1.0" standalone="no"?>
<!DOCTYPE svg PUBLIC "-//W3C//DTD SVG 20010904//EN"
 "http://www.w3.org/TR/2001/REC-SVG-20010904/DTD/svg10.dtd">
<svg version="1.0" xmlns="http://www.w3.org/2000/svg"
 width="50.000000pt" height="40.000000pt" viewBox="0 0 512.000000 512.000000"
 preserveAspectRatio="xMidYMid meet">

<g transform="translate(0.000000,512.000000) scale(0.100000,-0.100000)"
fill="#2196f3" stroke="none">
<path d="M892 4221 c-64 -22 -107 -61 -136 -121 l-21 -45 -3 -1430 c-2 -1005
1 -1446 9 -1483 14 -68 61 -129 124 -161 l49 -26 1591 0 1590 0 40 22 c50 27
120 99 135 138 24 62 570 2272 570 2305 0 48 -37 117 -80 152 -42 33 -128 52
-216 46 -82 -5 -94 -16 -94 -87 0 -82 4 -85 112 -89 51 -2 97 -7 101 -12 8 -7
-361 -1428 -382 -1475 -6 -12 -10 389 -11 1040 0 1004 -1 1062 -19 1100 -22
50 -74 103 -121 124 -32 14 -188 16 -1610 18 -1507 2 -1577 2 -1628 -16z
m3192 -183 c14 -20 16 -173 16 -1443 0 -1270 -2 -1423 -16 -1443 l-15 -22
-1564 0 c-1408 0 -1565 2 -1579 16 -14 14 -16 159 -16 1449 0 1290 2 1435 16
1449 14 14 171 16 1579 16 l1564 0 15 -22z"/>
<path d="M1270 3583 c-39 -14 -40 -26 -40 -390 0 -340 1 -354 20 -373 20 -20
33 -20 628 -20 534 0 610 2 630 16 l22 15 0 364 0 364 -22 15 c-20 14 -95 16
-623 15 -330 0 -607 -3 -615 -6z"/>
<path d="M2928 3579 c-15 -8 -18 -24 -18 -80 0 -65 2 -70 26 -79 15 -6 180
-10 399 -10 219 0 384 4 399 10 25 9 26 14 26 79 0 59 -3 72 -19 81 -27 14
-789 13 -813 -1z"/>
<path d="M2917 2963 c-12 -11 -8 -138 5 -151 19 -19 811 -17 827 2 7 9 11 41
9 83 l-3 68 -416 3 c-228 1 -418 -1 -422 -5z"/>
<path d="M1272 2348 c-7 -7 -12 -39 -12 -73 0 -34 5 -66 12 -73 15 -15 2454
-17 2478 -2 11 7 15 27 15 75 0 48 -4 68 -15 75 -24 15 -2463 13 -2478 -2z"/>
<path d="M1276 1734 c-19 -19 -22 -124 -4 -142 9 -9 299 -12 1245 -12 1208 0
1232 0 1243 19 15 29 12 104 -6 129 l-15 22 -1224 0 c-1099 0 -1225 -2 -1239
-16z"/>
</g>
</svg>
