<?xml version="1.0" standalone="no"?>
<!DOCTYPE svg PUBLIC "-//W3C//DTD SVG 20010904//EN"
 "http://www.w3.org/TR/2001/REC-SVG-20010904/DTD/svg10.dtd">
<svg version="1.0"
    xmlns="http://www.w3.org/2000/svg" width="512.000000pt" height="512.000000pt" viewBox="0 0 512.000000 512.000000" preserveAspectRatio="xMidYMid meet">

    <g transform="translate(0.000000,512.000000) scale(0.100000,-0.100000)" fill="#cf2e2e" stroke="none">
        <path d="M756 4835 c-106 -43 -196 -142 -229 -250 -9 -31 -12 -494 -12 -2045
0 -1922 1 -2007 18 -2065 59 -189 175 -329 342 -410 141 -68 66 -65 1677 -65
1584 0 1516 -2 1610 56 59 36 93 70 129 126 62 97 59 -30 59 2111 0 2163 5
1996 -63 2037 -51 31 -100 26 -145 -14 l-37 -34 -5 -1969 -5 -1968 -22 -31
c-12 -17 -35 -37 -50 -43 -21 -8 -411 -11 -1498 -9 l-1470 3 -61 28 c-77 36
-154 113 -191 192 -24 52 -28 72 -28 155 0 83 4 103 28 155 37 79 114 156 191
192 l61 28 1235 5 c953 4 1243 8 1272 18 140 47 239 158 268 297 7 34 9 571 8
1640 l-3 1590 -23 57 c-33 81 -108 160 -190 200 l-67 33 -1370 2 -1370 3 -59
-25z m2748 -239 c18 -7 43 -27 55 -44 l21 -30 0 -1580 0 -1579 -21 -27 c-11
-14 -30 -32 -42 -39 -17 -9 -298 -13 -1252 -17 -1093 -5 -1236 -7 -1280 -22
-69 -22 -120 -45 -166 -74 -21 -13 -41 -24 -44 -24 -3 0 -5 754 -5 1676 0
1661 0 1677 20 1709 43 69 -55 65 1383 65 1084 0 1303 -2 1331 -14z"/>
        <path d="M1101 752 c-49 -24 -74 -62 -74 -112 0 -50 25 -88 74 -112 32 -17
116 -18 1334 -18 1240 0 1302 1 1334 18 38 20 71 73 71 112 0 39 -33 92 -71
112 -32 17 -94 18 -1334 18 -1218 0 -1302 -1 -1334 -18z"/>
    </g>
</svg>
