<?xml version="1.0" standalone="no"?>
<!DOCTYPE svg PUBLIC "-//W3C//DTD SVG 20010904//EN"
 "http://www.w3.org/TR/2001/REC-SVG-20010904/DTD/svg10.dtd">
<svg version="1.0" xmlns="http://www.w3.org/2000/svg"
 width="40.000000pt" height="30.000000pt" viewBox="0 0 512.000000 455.000000"
 preserveAspectRatio="xMidYMid meet">

<g transform="translate(0.000000,455.000000) scale(0.100000,-0.100000)"
fill="#2196f3" stroke="none">
<path d="M4480 4541 c-56 -17 -109 -56 -498 -368 -445 -356 -567 -442 -747
-532 -208 -102 -383 -159 -630 -203 -116 -21 -154 -22 -1140 -27 -997 -6
-1021 -6 -1076 -27 -88 -32 -165 -83 -232 -154 -75 -80 -111 -144 -137 -246
-19 -72 -20 -112 -20 -567 0 -418 2 -500 16 -556 53 -214 225 -381 439 -426
46 -10 130 -15 243 -15 l172 0 -7 -28 c-5 -15 -8 -130 -8 -257 1 -194 4 -250
23 -356 39 -218 103 -428 180 -588 42 -87 86 -135 151 -165 44 -20 63 -21 429
-24 438 -3 456 -1 535 68 64 57 100 133 99 213 0 78 -8 97 -87 217 -126 189
-184 367 -192 593 -4 107 -2 158 12 232 l18 95 191 0 c360 0 618 -50 910 -175
243 -104 335 -167 853 -581 230 -184 438 -344 462 -356 60 -29 159 -29 226 1
67 30 108 71 142 145 l28 61 3 707 3 707 42 30 c23 16 60 48 82 72 229 250
199 624 -67 830 l-56 44 -4 710 c-3 703 -3 710 -25 757 -33 71 -96 134 -159
158 -55 20 -128 25 -174 11z m-210 -2121 c0 -687 -3 -1250 -7 -1250 -5 0 -91
67 -193 148 -102 81 -230 177 -285 213 -415 276 -880 428 -1387 456 l-118 6 0
423 0 422 78 6 c398 30 646 82 932 198 288 117 468 227 789 482 101 80 186
146 188 146 1 0 3 -562 3 -1250z"/>
</g>
</svg>
