<?xml version="1.0" standalone="no"?>
<!DOCTYPE svg PUBLIC "-//W3C//DTD SVG 20010904//EN"
 "http://www.w3.org/TR/2001/REC-SVG-20010904/DTD/svg10.dtd">
<svg version="1.0"
    xmlns="http://www.w3.org/2000/svg" width="800px" height="800px" viewBox="0 0 512.000000 512.000000" preserveAspectRatio="xMidYMid meet">

    <g transform="translate(0.000000,512.000000) scale(0.100000,-0.100000)" fill="#cf2e2e" stroke="none">
        <path d="M1282 4461 c-29 -10 -70 -32 -90 -48 -46 -37 -99 -113 -112 -163 -7
-25 -9 -491 -8 -1392 l3 -1354 25 -47 c36 -68 717 -749 785 -785 l50 -27 578
-3 577 -3 0 161 0 160 -480 0 -480 0 0 319 c0 313 0 319 -23 352 -12 19 -42
44 -67 57 -43 21 -53 22 -347 22 l-303 0 0 1225 0 1225 1065 0 1065 0 0 -855
0 -855 160 0 161 0 -3 898 -3 897 -34 63 c-38 70 -69 100 -145 140 l-51 27
-1135 2 c-1080 2 -1138 2 -1188 -16z m528 -3176 c0 -58 -1 -105 -3 -105 -1 0
-49 47 -107 105 l-105 105 108 0 107 0 0 -105z"/>
        <path d="M1710 3550 l0 -80 745 0 745 0 0 80 0 80 -745 0 -745 0 0 -80z"/>
        <path d="M1710 3070 l0 -80 745 0 745 0 0 80 0 80 -745 0 -745 0 0 -80z"/>
        <path d="M1710 2590 l0 -80 745 0 745 0 0 80 0 80 -745 0 -745 0 0 -80z"/>
        <path d="M3538 2271 c-306 -98 -434 -461 -255 -723 38 -56 140 -147 179 -160
10 -4 -13 -84 -93 -326 l-107 -321 142 -47 c77 -26 146 -49 151 -51 6 -2 35
71 65 162 30 91 57 165 60 165 3 0 30 -74 60 -165 30 -91 59 -164 65 -162 5 2
74 25 152 51 l141 47 -104 312 c-57 171 -104 316 -104 322 0 5 23 24 51 40
126 74 219 244 219 400 0 152 -84 310 -212 395 -117 78 -281 102 -410 61z
m222 -323 c75 -52 99 -131 61 -205 -78 -154 -317 -86 -298 85 9 81 77 142 157
142 32 0 57 -7 80 -22z"/>
        <path d="M1710 2110 l0 -80 480 0 481 0 -3 78 -3 77 -477 3 -478 2 0 -80z"/>
    </g>
</svg>
