<?xml version="1.0" standalone="no"?>
<!DOCTYPE svg PUBLIC "-//W3C//DTD SVG 20010904//EN"
 "http://www.w3.org/TR/2001/REC-SVG-20010904/DTD/svg10.dtd">
<svg version="1.0"
    xmlns="http://www.w3.org/2000/svg" width="512.000000pt" height="512.000000pt" viewBox="0 0 512.000000 512.000000" preserveAspectRatio="xMidYMid meet">

    <g transform="translate(0.000000,512.000000) scale(0.100000,-0.100000)" fill="#cf2e2e" stroke="none">
        <path d="M2445 5096 c-65 -30 -1065 -635 -1635 -989 -535 -332 -756 -480 -787
-526 -47 -69 -24 -127 96 -246 l81 -80 0 -467 c0 -455 -1 -468 -20 -478 -11
-6 -32 -32 -47 -58 -23 -39 -28 -58 -27 -111 0 -57 -3 -67 -28 -95 -97 -106
-100 -243 -9 -424 48 -95 152 -253 178 -268 38 -23 77 -25 110 -5 58 36 196
262 238 389 35 109 7 248 -65 317 -24 23 -26 31 -22 76 6 63 -17 124 -63 169
l-35 34 0 363 c0 200 3 363 6 363 3 0 34 -26 69 -57 35 -32 169 -148 298 -258
261 -221 270 -233 192 -255 -56 -16 -124 -63 -165 -115 -61 -77 -90 -174 -90
-304 0 -216 121 -385 340 -474 33 -13 39 -23 94 -158 77 -190 238 -518 318
-649 270 -442 554 -688 890 -767 98 -23 297 -23 395 0 448 106 804 500 1146
1267 35 80 77 178 93 219 25 64 33 76 64 88 172 70 277 181 324 342 18 62 21
182 6 262 -25 134 -117 250 -228 287 -52 17 -57 21 -57 48 0 26 29 53 257 244
478 401 706 609 739 672 47 92 20 132 -186 271 -297 201 -2112 1313 -2240
1373 -69 33 -161 33 -230 0z m766 -564 c1080 -655 1653 -1015 1646 -1036 -4
-14 -298 -274 -552 -487 l-200 -169 -5 239 c-6 283 3 261 -145 332 -246 116
-602 210 -971 256 -194 24 -654 24 -848 0 -369 -46 -723 -140 -973 -257 -148
-70 -143 -57 -143 -353 l0 -238 -178 153 c-315 271 -582 513 -582 529 0 31
2250 1409 2300 1409 17 0 252 -137 651 -378z m-241 -1077 c305 -36 646 -123
867 -220 l53 -24 0 -200 c0 -111 -4 -201 -9 -201 -5 0 -64 13 -132 29 -373 88
-763 131 -1189 131 -426 0 -816 -43 -1189 -131 -68 -16 -127 -29 -132 -29 -5
0 -9 90 -9 201 l0 200 53 24 c273 120 693 214 1072 239 118 8 482 -4 615 -19z
m60 -714 c277 -28 478 -61 713 -118 l147 -36 0 -143 0 -143 99 2 c118 2 141
-9 181 -89 20 -40 25 -63 24 -129 0 -104 -27 -168 -96 -230 -48 -43 -62 -49
-186 -81 -32 -9 -36 -15 -111 -199 -213 -519 -391 -827 -610 -1058 -244 -256
-529 -358 -807 -287 -390 100 -733 532 -1060 1335 -79 196 -81 200 -115 208
-123 32 -139 39 -187 82 -69 62 -96 126 -96 230 -1 67 3 89 24 129 35 68 78
89 192 94 l88 4 0 138 0 137 148 36 c249 61 472 96 727 117 72 6 150 12 175
14 83 7 644 -3 750 -13z m-2657 -821 c39 -31 43 -74 14 -152 -24 -62 -71 -148
-82 -148 -3 0 -26 41 -50 92 -55 111 -59 161 -19 202 34 33 98 36 137 6z"/>
    </g>
</svg>
